<svg width="15" height="15" viewBox="0 0 15 15" fill="none" xmlns="http://www.w3.org/2000/svg">
<path d="M14.9268 4.42732C14.9184 3.7975 14.8005 3.17395 14.5784 2.58454C14.3858 2.08739 14.0915 1.63588 13.7145 1.25887C13.3375 0.881858 12.886 0.587635 12.3888 0.395C11.807 0.176591 11.1924 0.0584943 10.571 0.0457368C9.77104 0.00997899 9.51741 0 7.4867 0C5.45598 0 5.1957 5.57616e-08 4.40154 0.0457368C3.78049 0.058588 3.16611 0.176684 2.58454 0.395C2.08731 0.587501 1.63573 0.881676 1.2587 1.2587C0.881676 1.63573 0.587501 2.08731 0.394999 2.58454C0.176154 3.16593 0.0583129 3.78044 0.0465684 4.40154C0.0108105 5.20235 0 5.45598 0 7.4867C0 9.51741 -6.19574e-09 9.77686 0.0465684 10.5718C0.059042 11.1939 0.176294 11.8076 0.394999 12.3905C0.587824 12.8876 0.882218 13.339 1.25937 13.7159C1.63653 14.0927 2.08815 14.3868 2.58538 14.5792C3.16535 14.8064 3.77983 14.933 4.40237 14.9534C5.20318 14.9892 5.45681 15 7.48753 15C9.51824 15 9.77853 15 10.5727 14.9534C11.194 14.9412 11.8087 14.8234 12.3905 14.605C12.8875 14.4121 13.3389 14.1178 13.7159 13.7409C14.0929 13.3639 14.3872 12.9125 14.5801 12.4155C14.7988 11.8334 14.916 11.2196 14.9285 10.5968C14.9642 9.79682 14.9751 9.54319 14.9751 7.51164C14.9734 5.48093 14.9734 5.22314 14.9268 4.42732ZM7.48171 11.3269C5.35786 11.3269 3.63732 9.60639 3.63732 7.48254C3.63732 5.35869 5.35786 3.63815 7.48171 3.63815C8.5013 3.63815 9.47914 4.04319 10.2001 4.76415C10.9211 5.48511 11.3261 6.46294 11.3261 7.48254C11.3261 8.50213 10.9211 9.47997 10.2001 10.2009C9.47914 10.9219 8.5013 11.3269 7.48171 11.3269ZM11.4791 4.39239C10.9826 4.39239 10.5827 3.99157 10.5827 3.49595C10.5827 3.37829 10.6058 3.26177 10.6509 3.15306C10.6959 3.04435 10.7619 2.94557 10.8451 2.86237C10.9283 2.77916 11.0271 2.71316 11.1358 2.66813C11.2445 2.6231 11.361 2.59993 11.4787 2.59993C11.5964 2.59993 11.7129 2.6231 11.8216 2.66813C11.9303 2.71316 12.0291 2.77916 12.1123 2.86237C12.1955 2.94557 12.2615 3.04435 12.3065 3.15306C12.3515 3.26177 12.3747 3.37829 12.3747 3.49595C12.3747 3.99157 11.9739 4.39239 11.4791 4.39239Z" fill="#8B8B90"/>
<path d="M7.48173 9.97883C8.86091 9.97883 9.97895 8.86078 9.97895 7.4816C9.97895 6.10242 8.86091 4.98438 7.48173 4.98438C6.10254 4.98438 4.9845 6.10242 4.9845 7.4816C4.9845 8.86078 6.10254 9.97883 7.48173 9.97883Z" fill="#8B8B90"/>
</svg>
