<svg width="16" height="15" viewBox="0 0 16 15" fill="none" xmlns="http://www.w3.org/2000/svg">
<path d="M1.80603 3.61206C2.80348 3.61206 3.61206 2.80348 3.61206 1.80603C3.61206 0.808588 2.80348 0 1.80603 0C0.808588 0 0 0.808588 0 1.80603C0 2.80348 0.808588 3.61206 1.80603 3.61206Z" fill="#8B8B90"/>
<path d="M5.31737 4.97907V14.9989H8.4284V10.0439C8.4284 8.73641 8.67438 7.47021 10.2955 7.47021C11.8944 7.47021 11.9142 8.96506 11.9142 10.1264V14.9997H15.0269V9.50489C15.0269 6.80574 14.4458 4.73145 11.291 4.73145C9.77632 4.73145 8.76105 5.56265 8.34586 6.34928H8.30376V4.97907H5.31737ZM0.247604 4.97907H3.36359V14.9989H0.247604V4.97907Z" fill="#8B8B90"/>
</svg>
